<svg width="17" height="15" viewBox="0 0 17 15" fill="none" xmlns="http://www.w3.org/2000/svg">
<path d="M16.9916 3.47129C16.9151 5.15779 15.7597 7.46699 13.5253 10.4075C11.2144 13.4865 9.26041 15 7.64621 15C6.6692 15 5.82811 14.0659 5.13995 12.1892C4.67269 10.494 4.2479 8.78159 3.77213 7.06915C3.26238 5.20103 2.71865 4.26697 2.12395 4.26697C2.00501 4.26697 1.56323 4.54373 0.798604 5.0886L0 4.03346C0.849579 3.28102 1.66518 2.52858 2.48077 1.77615C3.60222 0.790196 4.4433 0.271275 4.99553 0.219382C6.32087 0.0810034 7.13646 1.01506 7.44231 2.98696C7.77365 5.12319 8.00303 6.44644 8.13047 6.96536C8.49579 8.7297 8.92058 9.59457 9.38785 9.59457C9.74467 9.59457 10.2799 9.04105 10.9936 7.89077C11.7072 6.74915 12.0895 5.87563 12.1405 5.27022C12.2424 4.28427 11.8601 3.79129 10.9936 3.79129C10.5858 3.79129 10.1695 3.88643 9.73618 4.0767C10.5688 1.28317 12.166 -0.0746731 14.5193 0.00316511C16.2694 0.0550573 17.0935 1.21398 16.9916 3.47129Z" fill="black"/>
</svg>
